# xmcd CD database file
#
# Track frame offsets:
#	150
#	14843
#	25650
#	35643
#	46318
#	62135
#	76255
#	91693
#	102968
#	114528
#	124880
#	144603
#	155213
#	168120
#	184470
#	198920
#	212388
#	226400
#
# Disc length: 3261 seconds
#
# Revision: 0
# Processed by: cddbd v1.5.2PL0 Copyright (c) Steve Scherf et al.
# Submitted via: CDex 1.51
#
DISCID=f40cbb12
DTITLE=Various Artist - Your Favourite Dixies from the Sixties
DYEAR=1900
DGENRE=Jazz
TTITLE0=Midnight in Moscow - New Orleans Syncopaters
TTITLE1=Reginella Campagnola - The Middletown Jazzband
TTITLE2=Greenfields - New Orleans Syncopaters
TTITLE3=Domenique - The Middletown Jazzband
TTITLE4=Marching through Georgia - Magnolia Jazz Group ´65
TTITLE5=Maryland, my Maryland - The Cosy Corner Street Paraders
TTITLE6=Summertime - New Orleans Syncopaters
TTITLE7=I can´t believe that you´re in love with me - The Stork Town Dixie Kids
TTITLE8=Beer Barrel Polka - The Middletown Jazzband
TTITLE9=Grandfather´s clock - The South Jazzband
TTITLE10=Shine - The New Orleans Syncopaters
TTITLE11=Maria Elena - The Middletown Jazzband
TTITLE12=That Da Da Strain - Ted Easton
TTITLE13=J´ai deux amours - New Orleans Syncopaters
TTITLE14=L´Il Liza Jane - Magnolia Jazz Group ´65
TTITLE15=At a Georgia Camp Meeting - The Stork Town Dixie Kids
TTITLE16=Sweet Georgia Brown - The Cosy Corner Street Paraders
TTITLE17=When You´re Smiling - New Orleans Syncopaters
EXTD=
EXTT0=
EXTT1=
EXTT2=
EXTT3=
EXTT4=
EXTT5=
EXTT6=
EXTT7=
EXTT8=
EXTT9=
EXTT10=
EXTT11=
EXTT12=
EXTT13=
EXTT14=
EXTT15=
EXTT16=
EXTT17=
PLAYORDER=
